<?xml version="1.0" encoding="UTF-8" standalone="no"?>
<!-- Created with Inkscape (http://www.inkscape.org/) -->

<svg
   xmlns:ns0="http://www.iki.fi/pav/software/textext/"
   xmlns:dc="http://purl.org/dc/elements/1.1/"
   xmlns:cc="http://creativecommons.org/ns#"
   xmlns:rdf="http://www.w3.org/1999/02/22-rdf-syntax-ns#"
   xmlns:svg="http://www.w3.org/2000/svg"
   xmlns="http://www.w3.org/2000/svg"
   xmlns:sodipodi="http://sodipodi.sourceforge.net/DTD/sodipodi-0.dtd"
   xmlns:inkscape="http://www.inkscape.org/namespaces/inkscape"
   id="svg2"
   version="1.1"
   inkscape:version="0.48.4 r9939"
   width="686.88135"
   height="447.04251"
   xml:space="preserve"
   sodipodi:docname="Fig2forWikip.svg"
   inkscape:export-filename="/home/pmunro/UCL/research/coded_apertures/papers/wikipedia/xray_phase_contrast_edgeillumination_lab_res050.png"
   inkscape:export-xdpi="50"
   inkscape:export-ydpi="50"><sodipodi:namedview
     pagecolor="#ffffff"
     bordercolor="#666666"
     borderopacity="1"
     objecttolerance="10"
     gridtolerance="10"
     guidetolerance="10"
     inkscape:pageopacity="0"
     inkscape:pageshadow="2"
     inkscape:window-width="1920"
     inkscape:window-height="1167"
     id="namedview4"
     showgrid="false"
     fit-margin-top="0"
     fit-margin-left="0"
     fit-margin-right="0"
     fit-margin-bottom="0"
     inkscape:zoom="1.3985185"
     inkscape:cx="276.82265"
     inkscape:cy="173.1439"
     inkscape:window-x="1920"
     inkscape:window-y="0"
     inkscape:window-maximized="1"
     inkscape:current-layer="g10" /><metadata
     id="metadata8"><rdf:RDF><cc:Work
         rdf:about=""><dc:format>image/svg+xml</dc:format><dc:type
           rdf:resource="http://purl.org/dc/dcmitype/StillImage" /><dc:title></dc:title></cc:Work></rdf:RDF></metadata><defs
     id="defs6"><clipPath
       id="clipPath16"
       clipPathUnits="userSpaceOnUse"><path
         inkscape:connector-curvature="0"
         id="path18"
         clip-rule="evenodd"
         d="m 0,1.2207e-4 720,0 0,539.99999793 -720,0 L 0,1.2207e-4 z" /></clipPath></defs><g
     transform="matrix(1.25,0,0,-1.25,-76.8192,619.77585)"
     inkscape:label="Fig2forWikip"
     inkscape:groupmode="layer"
     id="g10"><rect
   style="fill:#ffffff;fill-opacity:1;stroke:none"
   id="rect3102"
   width="596.05933"
   height="386.69495"
   x="38.001968"
   y="-510.0087"
   transform="scale(1,-1)" /><path
   inkscape:connector-curvature="0"
   id="path22"
   style="fill:#00ff00;fill-opacity:1;fill-rule:evenodd;stroke:none"
   d="m 324,282 0,6 6,-6 192,-30 0,-18 6,0 -174,36 -30,12 z" /><path
   inkscape:connector-curvature="0"
   id="path24"
   style="fill:none;stroke:#000000;stroke-width:0.75;stroke-linecap:butt;stroke-linejoin:round;stroke-miterlimit:10;stroke-opacity:1;stroke-dasharray:none"
   d="m 324,282 0,6 6,-6 192,-30 0,-18 6,0 -174,36 -30,12 z" /><path
   inkscape:connector-curvature="0"
   id="path26"
   style="fill:#00ff00;fill-opacity:1;fill-rule:evenodd;stroke:none"
   d="m 522,432 -204,-54 0,-6 204,42 0,18 z" /><path
   inkscape:connector-curvature="0"
   id="path28"
   style="fill:none;stroke:#000000;stroke-width:0.75;stroke-linecap:butt;stroke-linejoin:round;stroke-miterlimit:10;stroke-opacity:1;stroke-dasharray:none"
   d="m 522,432 -204,-54 0,-6 204,42 0,18 z" /><path
   inkscape:connector-curvature="0"
   id="path30"
   style="fill:#00ff00;fill-opacity:1;fill-rule:evenodd;stroke:none"
   d="m 522,384 -210,-30 0,-12 30,6 -6,0 -6,0 198,24 -6,12 z" /><path
   inkscape:connector-curvature="0"
   id="path32"
   style="fill:none;stroke:#000000;stroke-width:0.75;stroke-linecap:butt;stroke-linejoin:round;stroke-miterlimit:10;stroke-opacity:1;stroke-dasharray:none"
   d="m 522,384 -210,-30 0,-12 30,6 -6,0 -6,0 198,24 -6,12 z" /><path
   inkscape:connector-curvature="0"
   id="path34"
   style="fill:#00ff00;fill-opacity:1;fill-rule:evenodd;stroke:none"
   d="m 360,306 162,-12 0,-18 0,6 -198,18 36,6 z" /><path
   inkscape:connector-curvature="0"
   id="path36"
   style="fill:none;stroke:#000000;stroke-width:0.75;stroke-linecap:butt;stroke-linejoin:round;stroke-miterlimit:10;stroke-opacity:1;stroke-dasharray:none"
   d="m 360,306 162,-12 0,-18 0,6 -198,18 36,6 z" /><path
   inkscape:connector-curvature="0"
   id="path38"
   style="fill:#00ff00;fill-opacity:1;fill-rule:evenodd;stroke:none"
   d="m 360,246 162,-42 0,-12 -162,48 0,6 z" /><path
   inkscape:connector-curvature="0"
   id="path40"
   style="fill:none;stroke:#000000;stroke-width:0.75;stroke-linecap:butt;stroke-linejoin:round;stroke-miterlimit:10;stroke-opacity:1;stroke-dasharray:none"
   d="m 360,246 162,-42 0,-12 -162,48 0,6 z" /><path
   inkscape:connector-curvature="0"
   id="path42"
   style="fill:#00ff00;fill-opacity:1;fill-rule:evenodd;stroke:none"
   d="m 360,330 162,6 0,-12 -162,0 0,6 z" /><path
   inkscape:connector-curvature="0"
   id="path44"
   style="fill:none;stroke:#000000;stroke-width:0.75;stroke-linecap:butt;stroke-linejoin:round;stroke-miterlimit:10;stroke-opacity:1;stroke-dasharray:none"
   d="m 360,330 162,6 0,-12 -162,0 0,6 z" /><path
   inkscape:connector-curvature="0"
   id="path46"
   style="fill:#c0c0c0;fill-opacity:1;fill-rule:evenodd;stroke:none"
   d="m 519.75,408.75 14.125,0 0,43.5 -14.125,0 0,-43.5 z" /><path
   inkscape:connector-curvature="0"
   id="path48"
   style="fill:none;stroke:#000000;stroke-width:0.75;stroke-linecap:butt;stroke-linejoin:miter;stroke-miterlimit:8;stroke-opacity:1;stroke-dasharray:none"
   d="m 519.75,408.75 14.125,0 0,43.5 -14.125,0 0,-43.5 z" /><path
   inkscape:connector-curvature="0"
   id="path50"
   style="fill:#c0c0c0;fill-opacity:1;fill-rule:evenodd;stroke:none"
   d="m 519.75,365.37 14.125,0 0,43.375 -14.125,0 0,-43.375 z" /><path
   inkscape:connector-curvature="0"
   id="path52"
   style="fill:none;stroke:#000000;stroke-width:0.75;stroke-linecap:butt;stroke-linejoin:miter;stroke-miterlimit:8;stroke-opacity:1;stroke-dasharray:none"
   d="m 519.75,365.37 14.125,0 0,43.375 -14.125,0 0,-43.375 z" /><path
   inkscape:connector-curvature="0"
   id="path54"
   style="fill:#c0c0c0;fill-opacity:1;fill-rule:evenodd;stroke:none"
   d="m 519.75,321.88 14.125,0 0,43.5 -14.125,0 0,-43.5 z" /><path
   inkscape:connector-curvature="0"
   id="path56"
   style="fill:none;stroke:#000000;stroke-width:0.75;stroke-linecap:butt;stroke-linejoin:miter;stroke-miterlimit:8;stroke-opacity:1;stroke-dasharray:none"
   d="m 519.75,321.88 14.125,0 0,43.5 -14.125,0 0,-43.5 z" /><path
   inkscape:connector-curvature="0"
   id="path58"
   style="fill:#c0c0c0;fill-opacity:1;fill-rule:evenodd;stroke:none"
   d="m 519.75,278.5 14.125,0 0,43.375 -14.125,0 0,-43.375 z" /><path
   inkscape:connector-curvature="0"
   id="path60"
   style="fill:none;stroke:#000000;stroke-width:0.75;stroke-linecap:butt;stroke-linejoin:miter;stroke-miterlimit:8;stroke-opacity:1;stroke-dasharray:none"
   d="m 519.75,278.5 14.125,0 0,43.375 -14.125,0 0,-43.375 z" /><path
   inkscape:connector-curvature="0"
   id="path62"
   style="fill:#c0c0c0;fill-opacity:1;fill-rule:evenodd;stroke:none"
   d="m 519.75,235 14.125,0 0,43.5 -14.125,0 0,-43.5 z" /><path
   inkscape:connector-curvature="0"
   id="path64"
   style="fill:none;stroke:#000000;stroke-width:0.75;stroke-linecap:butt;stroke-linejoin:miter;stroke-miterlimit:8;stroke-opacity:1;stroke-dasharray:none"
   d="m 519.75,235 14.125,0 0,43.5 -14.125,0 0,-43.5 z" /><path
   inkscape:connector-curvature="0"
   id="path66"
   style="fill:#c0c0c0;fill-opacity:1;fill-rule:evenodd;stroke:none"
   d="m 519.75,191.62 14.125,0 0,43.375 -14.125,0 0,-43.375 z" /><path
   inkscape:connector-curvature="0"
   id="path68"
   style="fill:none;stroke:#000000;stroke-width:0.75;stroke-linecap:butt;stroke-linejoin:miter;stroke-miterlimit:8;stroke-opacity:1;stroke-dasharray:none"
   d="m 519.75,191.62 14.125,0 0,43.375 -14.125,0 0,-43.375 z" /><path
   inkscape:connector-curvature="0"
   id="path70"
   style="fill:#000000;fill-opacity:1;fill-rule:evenodd;stroke:none"
   d="m 515,398.75 4.75,0 0,19.5 -4.75,0 0,-19.5 z" /><path
   inkscape:connector-curvature="0"
   id="path72"
   style="fill:none;stroke:#000000;stroke-width:0.75;stroke-linecap:butt;stroke-linejoin:miter;stroke-miterlimit:8;stroke-opacity:1;stroke-dasharray:none"
   d="m 515,398.75 4.75,0 0,19.5 -4.75,0 0,-19.5 z" /><path
   inkscape:connector-curvature="0"
   id="path74"
   style="fill:#000000;fill-opacity:1;fill-rule:evenodd;stroke:none"
   d="m 515,355 4.75,0 0,19.5 -4.75,0 0,-19.5 z" /><path
   inkscape:connector-curvature="0"
   id="path76"
   style="fill:none;stroke:#000000;stroke-width:0.75;stroke-linecap:butt;stroke-linejoin:miter;stroke-miterlimit:8;stroke-opacity:1;stroke-dasharray:none"
   d="m 515,355 4.75,0 0,19.5 -4.75,0 0,-19.5 z" /><path
   inkscape:connector-curvature="0"
   id="path78"
   style="fill:#000000;fill-opacity:1;fill-rule:evenodd;stroke:none"
   d="m 515,311.25 4.75,0 0,19.5 -4.75,0 0,-19.5 z" /><path
   inkscape:connector-curvature="0"
   id="path80"
   style="fill:none;stroke:#000000;stroke-width:0.75;stroke-linecap:butt;stroke-linejoin:miter;stroke-miterlimit:8;stroke-opacity:1;stroke-dasharray:none"
   d="m 515,311.25 4.75,0 0,19.5 -4.75,0 0,-19.5 z" /><path
   inkscape:connector-curvature="0"
   id="path82"
   style="fill:#000000;fill-opacity:1;fill-rule:evenodd;stroke:none"
   d="m 515,267.5 4.75,0 0,19.5 -4.75,0 0,-19.5 z" /><path
   inkscape:connector-curvature="0"
   id="path84"
   style="fill:none;stroke:#000000;stroke-width:0.75;stroke-linecap:butt;stroke-linejoin:miter;stroke-miterlimit:8;stroke-opacity:1;stroke-dasharray:none"
   d="m 515,267.5 4.75,0 0,19.5 -4.75,0 0,-19.5 z" /><path
   inkscape:connector-curvature="0"
   id="path86"
   style="fill:#000000;fill-opacity:1;fill-rule:evenodd;stroke:none"
   d="m 515,223.75 4.75,0 0,19.5 -4.75,0 0,-19.5 z" /><path
   inkscape:connector-curvature="0"
   id="path88"
   style="fill:none;stroke:#000000;stroke-width:0.75;stroke-linecap:butt;stroke-linejoin:miter;stroke-miterlimit:8;stroke-opacity:1;stroke-dasharray:none"
   d="m 515,223.75 4.75,0 0,19.5 -4.75,0 0,-19.5 z" /><path
   inkscape:connector-curvature="0"
   id="path90"
   style="fill:#000000;fill-opacity:1;fill-rule:evenodd;stroke:none"
   d="m 515,180 4.75,0 0,19.5 -4.75,0 0,-19.5 z" /><path
   inkscape:connector-curvature="0"
   id="path92"
   style="fill:none;stroke:#000000;stroke-width:0.75;stroke-linecap:butt;stroke-linejoin:miter;stroke-miterlimit:8;stroke-opacity:1;stroke-dasharray:none"
   d="m 515,180 4.75,0 0,19.5 -4.75,0 0,-19.5 z" /><path
   inkscape:connector-curvature="0"
   id="path94"
   style="fill:none;stroke:#000000;stroke-width:0.75;stroke-linecap:butt;stroke-linejoin:round;stroke-miterlimit:8;stroke-opacity:1;stroke-dasharray:none"
   d="m 78,321 441.75,14.62" /><path
   inkscape:connector-curvature="0"
   id="path96"
   style="fill:#000000;fill-opacity:1;fill-rule:evenodd;stroke:none"
   d="m 363,362.12 4.75,0 0,19.5 -4.75,0 0,-19.5 z" /><path
   inkscape:connector-curvature="0"
   id="path98"
   style="fill:none;stroke:#000000;stroke-width:0.75;stroke-linecap:butt;stroke-linejoin:miter;stroke-miterlimit:8;stroke-opacity:1;stroke-dasharray:none"
   d="m 363,362.12 4.75,0 0,19.5 -4.75,0 0,-19.5 z" /><path
   inkscape:connector-curvature="0"
   id="path100"
   style="fill:#000000;fill-opacity:1;fill-rule:evenodd;stroke:none"
   d="m 363,330.62 4.75,0 0,22.25 -4.75,0 0,-22.25 z" /><path
   inkscape:connector-curvature="0"
   id="path102"
   style="fill:none;stroke:#000000;stroke-width:0.75;stroke-linecap:butt;stroke-linejoin:miter;stroke-miterlimit:8;stroke-opacity:1;stroke-dasharray:none"
   d="m 363,330.62 4.75,0 0,22.25 -4.75,0 0,-22.25 z" /><path
   inkscape:connector-curvature="0"
   id="path104"
   style="fill:#000000;fill-opacity:1;fill-rule:evenodd;stroke:none"
   d="m 363,305.37 4.75,0 0,18.375 -4.75,0 0,-18.375 z" /><path
   inkscape:connector-curvature="0"
   id="path106"
   style="fill:none;stroke:#000000;stroke-width:0.75;stroke-linecap:butt;stroke-linejoin:miter;stroke-miterlimit:8;stroke-opacity:1;stroke-dasharray:none"
   d="m 363,305.37 4.75,0 0,18.375 -4.75,0 0,-18.375 z" /><path
   inkscape:connector-curvature="0"
   id="path108"
   style="fill:#000000;fill-opacity:1;fill-rule:evenodd;stroke:none"
   d="m 363,277.12 4.75,0 0,18.125 -4.75,0 0,-18.125 z" /><path
   inkscape:connector-curvature="0"
   id="path110"
   style="fill:none;stroke:#000000;stroke-width:0.75;stroke-linecap:butt;stroke-linejoin:miter;stroke-miterlimit:8;stroke-opacity:1;stroke-dasharray:none"
   d="m 363,277.12 4.75,0 0,18.125 -4.75,0 0,-18.125 z" /><path
   inkscape:connector-curvature="0"
   id="path112"
   style="fill:#000000;fill-opacity:1;fill-rule:evenodd;stroke:none"
   d="m 363,245.37 4.75,0 0,21.125 -4.75,0 0,-21.125 z" /><path
   inkscape:connector-curvature="0"
   id="path114"
   style="fill:none;stroke:#000000;stroke-width:0.75;stroke-linecap:butt;stroke-linejoin:miter;stroke-miterlimit:8;stroke-opacity:1;stroke-dasharray:none"
   d="m 363,245.37 4.75,0 0,21.125 -4.75,0 0,-21.125 z" /><path
   inkscape:connector-curvature="0"
   id="path116"
   style="fill:#000000;fill-opacity:1;fill-rule:evenodd;stroke:none"
   d="m 362.63,390.25 5.375,0 0,18 -5.375,0 0,-18 z" /><path
   inkscape:connector-curvature="0"
   id="path118"
   style="fill:#000000;fill-opacity:1;fill-rule:evenodd;stroke:none"
   d="m 362.63,220 5.375,0 0,18 -5.375,0 0,-18 z" /><path
   inkscape:connector-curvature="0"
   id="path120"
   style="fill:#00ff00;fill-opacity:1;fill-rule:evenodd;stroke:none"
   d="M 78,321.31 363,402 363,222 78,321.31 z" /><text
   id="text122"
   transform="matrix(1,0,0,-1,259.3,316.87)"><tspan
     id="tspan124"
     sodipodi:role="line"
     y="0"
     x="0 8.0278797 15.11412 22.200359 34.313999 38.734921 44.049599 52.029598 57.34428"
     style="font-size:15.96000004px;font-variant:normal;font-weight:normal;writing-mode:lr-tb;fill:#000000;fill-opacity:1;fill-rule:nonzero;stroke:none;font-family:Times;-inkscape-font-specification:Times">beam (pre</tspan></text>


<text
   id="text126"
   transform="matrix(1,0,0,-1,323.74,316.87)"><tspan
     id="tspan128"
     y="0"
     x="0"
     style="font-size:15.96000004px;font-variant:normal;font-weight:normal;writing-mode:lr-tb;fill:#000000;fill-opacity:1;fill-rule:nonzero;stroke:none;font-family:Times;-inkscape-font-specification:Times">-</tspan></text>


<text
   id="text130"
   transform="matrix(1,0,0,-1,266.5,297.67)"><tspan
     id="tspan132"
     sodipodi:role="line"
     y="0"
     x="0 6.2084398 14.26824 21.354481 29.3664 33.80328 41.831161 49.859039"
     style="font-size:15.96000004px;font-variant:normal;font-weight:normal;writing-mode:lr-tb;fill:#000000;fill-opacity:1;fill-rule:nonzero;stroke:none;font-family:Times;-inkscape-font-specification:Times">shaping)</tspan></text>


<text
   id="text134"
   transform="matrix(1,0,0,-1,271.06,454.9)"><tspan
     id="tspan136"
     sodipodi:role="line"
     y="0"
     x="0 8.8737602 13.31064 18.62532 24.833759 29.270639"
     style="font-size:15.96000004px;font-variant:normal;font-weight:normal;writing-mode:lr-tb;fill:#000000;fill-opacity:1;fill-rule:nonzero;stroke:none;font-family:Times;-inkscape-font-specification:Times">First </tspan></text>


<text
   id="text138"
   transform="matrix(1,0,0,-1,304.54,454.9)"><tspan
     id="tspan140"
     sodipodi:role="line"
     y="0"
     x="0 7.0862398 15.09816 22.184401 27.499081 31.935961 39.915958 45.23064 52.316879"
     style="font-size:15.96000004px;font-variant:normal;font-weight:normal;writing-mode:lr-tb;fill:#000000;fill-opacity:1;fill-rule:nonzero;stroke:none;font-family:Times;-inkscape-font-specification:Times">apertured</tspan></text>


<text
   id="text142"
   transform="matrix(1,0,0,-1,301.3,435.7)"><tspan
     id="tspan144"
     sodipodi:role="line"
     y="0"
     x="0 12.11364 19.199881 25.408319"
     style="font-size:15.96000004px;font-variant:normal;font-weight:normal;writing-mode:lr-tb;fill:#000000;fill-opacity:1;fill-rule:nonzero;stroke:none;font-family:Times;-inkscape-font-specification:Times">mask</tspan></text>


<text
   id="text146"
   transform="matrix(1,0,0,-1,526.3,160.85)"><tspan
     id="tspan148"
     sodipodi:role="line"
     y="0"
     x="0 6.2084398 13.29468 20.38092 28.424761 36.452641"
     style="font-size:15.96000004px;font-variant:normal;font-weight:normal;writing-mode:lr-tb;fill:#000000;fill-opacity:1;fill-rule:nonzero;stroke:none;font-family:Times;-inkscape-font-specification:Times">second</tspan></text>


<text
   id="text150"
   transform="matrix(1,0,0,-1,499.54,141.65)"><tspan
     id="tspan152"
     sodipodi:role="line"
     y="0"
     x="0 7.0862398 15.09816 22.184401 27.499081 31.935961 39.915958 45.23064 52.316879 60.296879 64.638 76.75164 83.837883 90.046318"
     style="font-size:15.96000004px;font-variant:normal;font-weight:normal;writing-mode:lr-tb;fill:#000000;fill-opacity:1;fill-rule:nonzero;stroke:none;font-family:Times;-inkscape-font-specification:Times">apertured mask</tspan></text>


<text
   id="text154"
   transform="matrix(1,0,0,-1,559.46,326.62)"><tspan
     id="tspan156"
     sodipodi:role="line"
     y="0"
     x="0 8.0239677 15.120864 19.564417 26.661312 33.710255 38.153809 46.145809"
     style="font-size:15.98400021px;font-variant:normal;font-weight:normal;writing-mode:lr-tb;fill:#000000;fill-opacity:1;fill-rule:nonzero;stroke:none;font-family:Times;-inkscape-font-specification:Times">detector</tspan></text>


<text
   id="text158"
   transform="matrix(1,0,0,-1,566.06,307.42)"><tspan
     id="tspan160"
     sodipodi:role="line"
     y="0"
     x="0 8.0278797 12.46476 20.49264 27.57888 32.015759"
     style="font-size:15.96000004px;font-variant:normal;font-weight:normal;writing-mode:lr-tb;fill:#000000;fill-opacity:1;fill-rule:nonzero;stroke:none;font-family:Times;-inkscape-font-specification:Times">pixels</tspan></text>


<path
   inkscape:connector-curvature="0"
   id="path162"
   style="fill:#000000;fill-opacity:1;fill-rule:nonzero;stroke:none"
   d="m 551.66,335.83 -21.76,43.53 0.67,0.34 21.77,-43.53 -0.68,-0.34 z m -23.66,41.46 0,6.71 5.37,-4.02 -5.37,-2.69 z" /><path
   inkscape:connector-curvature="0"
   id="path164"
   style="fill:#000000;fill-opacity:1;fill-rule:nonzero;stroke:none"
   d="m 551.91,335.64 -19.15,4.78 0.18,0.73 19.15,-4.79 -0.18,-0.72 z m -18.82,1.99 -5.09,4.37 6.55,1.46 -1.46,-5.83 z" /><path
   inkscape:connector-curvature="0"
   id="path166"
   style="fill:#000000;fill-opacity:1;fill-rule:nonzero;stroke:none"
   d="m 551.69,336.21 -21.23,-31.84 0.63,-0.42 21.22,31.84 -0.62,0.42 z M 528.83,306.66 528,300 l 5.82,3.33 -4.99,3.33 z" /><path
   inkscape:connector-curvature="0"
   id="path168"
   style="fill:#000000;fill-opacity:1;fill-rule:nonzero;stroke:none"
   d="m 551.64,336.1 -22.63,-79.19 0.72,-0.21 22.63,79.2 -0.72,0.2 z M 526.76,258.59 528,252 l 4.53,4.95 -5.77,1.64 z" /><path
   inkscape:connector-curvature="0"
   id="path170"
   style="fill:#000000;fill-opacity:1;fill-rule:nonzero;stroke:none"
   d="m 390.17,359.27 5.84,1.39 -0.35,1.46 -5.83,-1.39 0.34,-1.46 z m 10.22,2.43 5.83,1.39 -0.34,1.46 -5.84,-1.39 0.35,-1.46 z m 10.21,2.43 5.84,1.39 -0.35,1.46 -5.83,-1.39 0.34,-1.46 z m 10.22,2.44 5.83,1.39 -0.34,1.46 -5.84,-1.39 0.35,-1.46 z m 10.21,2.43 5.84,1.39 -0.35,1.46 -5.84,-1.39 0.35,-1.46 z m 10.22,2.43 5.83,1.39 -0.34,1.46 -5.84,-1.39 0.35,-1.46 z m 10.21,2.43 5.84,1.39 -0.35,1.46 -5.84,-1.39 0.35,-1.46 z m 10.21,2.43 5.84,1.39 -0.35,1.46 -5.83,-1.39 0.34,-1.46 z m 10.22,2.44 5.84,1.39 -0.35,1.46 -5.84,-1.39 0.35,-1.46 z m 10.21,2.43 5.84,1.39 -0.35,1.46 -5.83,-1.39 0.34,-1.46 z m 10.22,2.43 5.84,1.39 -0.35,1.46 -5.84,-1.39 0.35,-1.46 z m 10.21,2.43 5.84,1.39 -0.35,1.46 -5.83,-1.39 0.34,-1.46 z m 8.33,-0.33 5.14,4.31 -6.53,1.53 1.39,-5.84 z" /><path
   inkscape:connector-curvature="0"
   id="path172"
   style="fill:#000000;fill-opacity:1;fill-rule:nonzero;stroke:none"
   d="m 390.17,270.73 5.84,-1.39 -0.35,-1.46 -5.83,1.39 0.34,1.46 z m 10.22,-2.43 5.83,-1.39 -0.34,-1.46 -5.84,1.39 0.35,1.46 z m 10.21,-2.43 5.84,-1.39 -0.35,-1.46 -5.84,1.39 0.35,1.46 z m 10.22,-2.44 5.83,-1.39 -0.34,-1.46 -5.84,1.39 0.35,1.46 z m 10.21,-2.43 5.84,-1.39 -0.35,-1.46 -5.84,1.39 0.35,1.46 z m 10.22,-2.43 5.83,-1.39 -0.34,-1.46 -5.84,1.39 0.35,1.46 z m 10.21,-2.43 5.84,-1.39 -0.35,-1.46 -5.84,1.39 0.35,1.46 z m 10.21,-2.43 5.84,-1.39 -0.35,-1.46 -5.83,1.39 0.34,1.46 z m 10.22,-2.44 5.84,-1.39 -0.35,-1.46 -5.84,1.39 0.35,1.46 z m 10.21,-2.43 5.84,-1.39 -0.35,-1.46 -5.83,1.39 0.34,1.46 z m 10.22,-2.43 5.83,-1.39 -0.34,-1.46 -5.84,1.39 0.35,1.46 z m 10.21,-2.43 5.84,-1.39 -0.35,-1.46 -5.83,1.39 0.34,1.46 z m 8.33,0.33 5.14,-4.31 -6.53,-1.53 1.39,5.84 z" /><path
   inkscape:connector-curvature="0"
   id="path174"
   style="fill:#000000;fill-opacity:1;fill-rule:nonzero;stroke:none"
   d="m 458.31,382.45 34.03,79.4 -0.68,0.3 -34.04,-79.41 0.69,-0.29 z m -2.7,2.25 0.39,-6.7 5.12,4.33 -5.51,2.37 z" /><text
   id="text176"
   transform="matrix(1,0,0,-1,444.53,484.92)"><tspan
     id="tspan178"
     sodipodi:role="line"
     y="0"
     x="0 8.0278797 16.055759 24.083639 28.520519 36.548401 44.576279 50.784721 54.662998 61.749241 67.063919 74.150162 81.188522 85.625397 90.062279 98.090157"
     style="font-size:15.96000004px;font-variant:normal;font-weight:normal;writing-mode:lr-tb;fill:#000000;fill-opacity:1;fill-rule:nonzero;stroke:none;font-family:Times;-inkscape-font-specification:Times">photons creating</tspan></text>


<text
   id="text180"
   transform="matrix(1,0,0,-1,444.53,465.7)"><tspan
     id="tspan182"
     sodipodi:role="line"
     y="0"
     x="0 4.4368801 12.46476 19.551001 24.865681 31.95192 38.99028 45.198719 52.284962 60.3288 64.638 70.846443 75.283318 83.343117 91.371002 98.457237"
     style="font-size:15.96000004px;font-variant:normal;font-weight:normal;writing-mode:lr-tb;fill:#000000;fill-opacity:1;fill-rule:nonzero;stroke:none;font-family:Times;-inkscape-font-specification:Times">increased signal</tspan></text>


<text
   id="text184"
   transform="matrix(1,0,0,-1,348.5,184.85)"><tspan
     id="tspan186"
     sodipodi:role="line"
     y="0"
     x="0 8.0278797 16.055759 24.083639 28.520519 36.548401 44.576279 50.784721 54.662998 61.749241 67.063919 74.150162 81.188522 85.625397 90.062279 98.090157"
     style="font-size:15.96000004px;font-variant:normal;font-weight:normal;writing-mode:lr-tb;fill:#000000;fill-opacity:1;fill-rule:nonzero;stroke:none;font-family:Times;-inkscape-font-specification:Times">photons creating</tspan></text>


<text
   id="text188"
   transform="matrix(1,0,0,-1,348.5,165.65)"><tspan
     id="tspan190"
     sodipodi:role="line"
     y="0"
     x="0 5.3146801 12.40092 20.38092 28.424761 35.511002 42.59724 50.57724 54.69492 60.903358 65.34024 73.40004 81.427917 88.51416"
     style="font-size:15.96000004px;font-variant:normal;font-weight:normal;writing-mode:lr-tb;fill:#000000;fill-opacity:1;fill-rule:nonzero;stroke:none;font-family:Times;-inkscape-font-specification:Times">reduced signal</tspan></text>


<path
   inkscape:connector-curvature="0"
   id="path192"
   style="fill:#000000;fill-opacity:1;fill-rule:nonzero;stroke:none"
   d="m 402.27,197.73 50.46,50.47 -0.53,0.53 -50.47,-50.46 0.54,-0.54 z m 51.61,47.91 2.12,6.36 -6.36,-2.12 4.24,-4.24 z" /><path
   inkscape:connector-curvature="0"
   id="path194"
   style="fill:#000000;fill-opacity:1;fill-rule:nonzero;stroke:none"
   d="m 390.14,353.26 5.89,1.13 -0.28,1.47 -5.89,-1.12 0.28,-1.48 z m 10.31,1.97 5.9,1.12 -0.28,1.47 -5.9,-1.12 0.28,-1.47 z m 10.32,1.96 5.89,1.13 -0.28,1.47 -5.89,-1.12 0.28,-1.48 z m 10.31,1.97 5.9,1.12 -0.28,1.47 -5.9,-1.12 0.28,-1.47 z m 10.32,1.96 5.89,1.12 -0.28,1.48 -5.89,-1.12 0.28,-1.48 z m 10.31,1.97 5.9,1.12 -0.28,1.47 -5.9,-1.12 0.28,-1.47 z m 10.32,1.96 5.89,1.12 -0.28,1.48 -5.89,-1.13 0.28,-1.47 z m 10.31,1.97 5.9,1.12 -0.28,1.47 -5.9,-1.12 0.28,-1.47 z m 10.32,1.96 5.89,1.12 -0.28,1.48 -5.89,-1.13 0.28,-1.47 z m 10.31,1.97 5.9,1.12 -0.29,1.47 -5.89,-1.12 0.28,-1.47 z m 10.32,1.96 5.89,1.12 -0.28,1.48 -5.89,-1.13 0.28,-1.47 z m 10.31,1.96 5.89,1.13 -0.28,1.47 -5.89,-1.12 0.28,-1.48 z m 7.07,-0.94 5.33,4.07 -6.46,1.82 1.13,-5.89 z" /><path
   inkscape:connector-curvature="0"
   id="path196"
   style="fill:#000000;fill-opacity:1;fill-rule:nonzero;stroke:none"
   d="m 390.25,270.71 5.66,-1.98 -0.49,-1.42 -5.67,1.98 0.5,1.42 z m 9.91,-3.47 5.66,-1.98 -0.49,-1.42 -5.67,1.98 0.5,1.42 z m 9.91,-3.47 5.66,-1.98 -0.49,-1.42 -5.67,1.98 0.5,1.42 z m 9.91,-3.47 5.66,-1.98 -0.49,-1.42 -5.67,1.99 0.5,1.41 z m 9.91,-3.47 5.66,-1.98 -0.49,-1.41 -5.67,1.98 0.5,1.41 z m 9.91,-3.47 5.66,-1.98 -0.49,-1.41 -5.67,1.98 0.5,1.41 z m 9.91,-3.46 5.66,-1.99 -0.49,-1.41 -5.66,1.98 0.49,1.42 z m 9.91,-3.47 5.66,-1.98 -0.49,-1.42 -5.66,1.98 0.49,1.42 z m 9.91,-3.47 5.66,-1.98 -0.49,-1.42 -5.66,1.98 0.49,1.42 z m 9.91,-3.47 5.67,-1.98 -0.5,-1.42 -5.66,1.98 0.49,1.42 z m 9.91,-3.47 5.67,-1.98 -0.5,-1.42 -5.66,1.99 0.49,1.41 z m 9.91,-3.47 5.67,-1.98 -0.5,-1.42 -5.66,1.99 0.49,1.41 z m 6.07,0.26 4.67,-4.81 -6.65,-0.85 1.98,5.66 z" /><path
   inkscape:connector-curvature="0"
   id="path198"
   style="fill:#ff0000;fill-opacity:1;fill-rule:evenodd;stroke:none"
   d="m 378,315 c 0,24.85 6.72,45 15,45 8.28,0 15,-20.15 15,-45 0,-24.85 -6.72,-45 -15,-45 -8.28,0 -15,20.15 -15,45 z" /><path
   inkscape:connector-curvature="0"
   id="path200"
   style="fill:none;stroke:#000000;stroke-width:0.75;stroke-linecap:butt;stroke-linejoin:round;stroke-miterlimit:8;stroke-opacity:1;stroke-dasharray:none"
   d="m 378,315 c 0,24.85 6.72,45 15,45 8.28,0 15,-20.15 15,-45 0,-24.85 -6.72,-45 -15,-45 -8.28,0 -15,20.15 -15,45 z" /><text
   id="text202"
   transform="matrix(1,0,0,-1,415.27,308.26)"><tspan
     id="tspan204"
     sodipodi:role="line"
     y="0"
     x="0 6.2084398 13.29468 25.440241 33.468121 37.904999"
     style="font-size:15.96000004px;font-variant:normal;font-weight:normal;writing-mode:lr-tb;fill:#000000;fill-opacity:1;fill-rule:nonzero;stroke:none;font-family:Times;-inkscape-font-specification:Times">sample</tspan></text>


<path
   inkscape:connector-curvature="0"
   id="path206"
   style="fill:#000000;fill-opacity:1;fill-rule:nonzero;stroke:none"
   d="m 318.19,432.33 37.65,-21.52 -0.37,-0.65 -37.66,21.51 0.38,0.66 z m 38.09,-18.75 3.72,-5.58 -6.7,0.37 2.98,5.21 z" /><path
   inkscape:connector-curvature="0"
   id="path208"
   style="fill:#000000;fill-opacity:1;fill-rule:nonzero;stroke:none"
   d="m 539.79,173.69 -13.84,9.22 0.42,0.63 13.84,-9.23 -0.42,-0.62 z m -14.46,6.49 -3.33,5.82 6.66,-0.83 -3.33,-4.99 z" /><path
   inkscape:connector-curvature="0"
   id="path210"
   style="fill:#ffffff;fill-opacity:1;fill-rule:evenodd;stroke:none"
   d="m 66,306 30,0 0,30 -30,0 0,-30 z" /><path
   inkscape:connector-curvature="0"
   id="path212"
   style="fill:#000000;fill-opacity:1;fill-rule:evenodd;stroke:none"
   d="m 90.625,321 c 0,3.31 2.686,6 6,6 3.314,0 6.005,-2.69 6.005,-6 0,-3.31 -2.691,-6 -6.005,-6 -3.314,0 -6,2.69 -6,6 z" /><path
   inkscape:connector-curvature="0"
   id="path214"
   style="fill:none;stroke:#000000;stroke-width:0.75;stroke-linecap:butt;stroke-linejoin:round;stroke-miterlimit:8;stroke-opacity:1;stroke-dasharray:none"
   d="m 90.625,321 c 0,3.31 2.686,6 6,6 3.314,0 6.005,-2.69 6.005,-6 0,-3.31 -2.691,-6 -6.005,-6 -3.314,0 -6,2.69 -6,6 z" /><text
   id="text216"
   transform="matrix(1,0,0,-1,61.2,263.11)"><tspan
     id="tspan218"
     sodipodi:role="line"
     y="0"
     x="0 8.8737602 16.90164 23.987881 28.424761 32.861641 39.94788 44.384762 48.82164 56.737801 61.047001 73.463882 77.61348 82.050362 89.136597 101.28216 109.31004 117.33792 122.6526 129.73885 134.17572 138.67644 146.59261"
     style="font-size:15.96000004px;font-variant:normal;font-weight:normal;writing-mode:lr-tb;fill:#000000;fill-opacity:1;fill-rule:nonzero;stroke:none;font-family:Times;-inkscape-font-specification:Times">Spatially &amp; temporally </tspan></text>


<text
   id="text220"
   transform="matrix(1,0,0,-1,61.2,243.91)"><tspan
     id="tspan222"
     sodipodi:role="line"
     y="0"
     x="0 4.4368801 12.46476 19.551001 27.56292 35.590801 42.67704 47.991718 55.077961 63.057961 67.494843 71.692322"
     style="font-size:15.96000004px;font-variant:normal;font-weight:normal;writing-mode:lr-tb;fill:#000000;fill-opacity:1;fill-rule:nonzero;stroke:none;font-family:Times;-inkscape-font-specification:Times">incoherent x</tspan></text>


<text
   id="text224"
   transform="matrix(1,0,0,-1,141.02,243.91)"><tspan
     id="tspan226"
     y="0"
     x="0"
     style="font-size:15.96000004px;font-variant:normal;font-weight:normal;writing-mode:lr-tb;fill:#000000;fill-opacity:1;fill-rule:nonzero;stroke:none;font-family:Times;-inkscape-font-specification:Times">-</tspan></text>


<text
   id="text228"
   transform="matrix(1,0,0,-1,146.3,243.91)"><tspan
     id="tspan230"
     sodipodi:role="line"
     y="0"
     x="0 5.3146801 12.40092 20.28516 24.59436 30.802799 38.862598 46.89048 52.205158 59.291401 66.37764"
     style="font-size:15.96000004px;font-variant:normal;font-weight:normal;writing-mode:lr-tb;fill:#000000;fill-opacity:1;fill-rule:nonzero;stroke:none;font-family:Times;-inkscape-font-specification:Times">ray source </tspan></text>


<text
   id="text232"
   transform="matrix(1,0,0,-1,61.2,224.71)"><tspan
     id="tspan234"
     sodipodi:role="line"
     y="0"
     x="0 5.3146801 9.7515602 17.635799 25.663679 30.100559 37.186798 44.273041 48.709919 53.146801 61.062962 65.611557 73.639442 81.66732 89.695198"
     style="font-size:15.96000004px;font-variant:normal;font-weight:normal;writing-mode:lr-tb;fill:#000000;fill-opacity:1;fill-rule:nonzero;stroke:none;font-family:Times;-inkscape-font-specification:Times">(typically 100 </tspan></text>


<text
   id="text240"
   transform="matrix(1,0,0,-1,163.94,224.71)"><tspan
     id="tspan242"
     sodipodi:role="line"
     y="0"
     x="0 12.14556 16.69416 22.07268 30.100559 37.186798 44.273041 48.709919"
     style="font-size:15.96000004px;font-variant:normal;font-weight:normal;writing-mode:lr-tb;fill:#000000;fill-opacity:1;fill-rule:nonzero;stroke:none;font-family:Times;-inkscape-font-specification:Times">m focal </tspan></text>


<text
   id="text244"
   transform="matrix(1,0,0,-1,61.2,205.51)"><tspan
     id="tspan246"
     sodipodi:role="line"
     y="0"
     x="0 6.2084398 14.26824 22.29612 26.733 30.723"
     style="font-size:15.96000004px;font-variant:normal;font-weight:normal;writing-mode:lr-tb;fill:#000000;fill-opacity:1;fill-rule:nonzero;stroke:none;font-family:Times;-inkscape-font-specification:Times">spot x</tspan></text>


<text
   id="text248"
   transform="matrix(1,0,0,-1,99.984,205.51)"><tspan
     id="tspan250"
     y="0"
     x="0"
     style="font-size:15.96000004px;font-variant:normal;font-weight:normal;writing-mode:lr-tb;fill:#000000;fill-opacity:1;fill-rule:nonzero;stroke:none;font-family:Times;-inkscape-font-specification:Times">-</tspan></text>


<text
   id="text252"
   transform="matrix(1,0,0,-1,105.26,205.51)"><tspan
     id="tspan254"
     sodipodi:role="line"
     y="0"
     x="0 5.3146801 12.40092 20.28516 24.59436 29.03124 37.05912 45.087002 52.173241"
     style="font-size:15.96000004px;font-variant:normal;font-weight:normal;writing-mode:lr-tb;fill:#000000;fill-opacity:1;fill-rule:nonzero;stroke:none;font-family:Times;-inkscape-font-specification:Times">ray tube)</tspan></text>


<path
   inkscape:connector-curvature="0"
   id="path256"
   style="fill:#000000;fill-opacity:1;fill-rule:nonzero;stroke:none"
   d="m 119.69,275.79 -21.229,31.84 0.625,0.42 21.224,-31.84 -0.62,-0.42 z M 96.832,305.34 96,312 l 5.82,-3.33 -4.988,-3.33 z" /><g
   ns0:preamble="/home/pmunro/admin/open_day_2012/planning/layout/textext.inc"
   ns0:text="$\\mu$"
   word-spacing="normal"
   letter-spacing="normal"
   font-size-adjust="none"
   font-stretch="normal"
   font-weight="normal"
   font-variant="normal"
   font-style="normal"
   stroke-miterlimit="10.433"
   xml:space="preserve"
   transform="matrix(1.6997357,0,0,1.6997357,-225.89547,-977.20472)"
   id="content"
   style="font-style:normal;font-variant:normal;font-weight:normal;font-stretch:normal;letter-spacing:normal;word-spacing:normal;text-anchor:start;fill:none;stroke:#000000;stroke-linecap:butt;stroke-linejoin:miter;stroke-miterlimit:10.43299961;stroke-opacity:1;stroke-dasharray:none;stroke-dashoffset:0">
<path
   id="path3357"
   d="m 225.73,710.61 0,0.02 0.01,0.02 0.01,0.02 0,0.03 0.01,0.02 0,0.02 0.01,0.05 0.02,0.05 0.01,0.05 0.01,0.05 0.01,0.05 0.01,0.02 0,0.03 0.01,0.02 0.01,0.02 0,0.02 0,0.02 0.01,0.02 0,0.02 0.01,0.01 0,0.02 0,0.01 0,0.01 0.01,0.01 0,0.01 0,0.01 0,0 0,0.01 c 0,0.17 -0.12,0.27 -0.29,0.27 -0.03,0 -0.31,-0.01 -0.4,-0.36 l -1.43,-5.75 c -0.03,-0.12 -0.03,-0.14 -0.03,-0.16 0,-0.15 0.11,-0.27 0.28,-0.27 0.21,0 0.33,0.18 0.35,0.21 0.04,0.09 0.17,0.6 0.54,2.13 0.32,-0.27 0.77,-0.3 0.97,-0.3 0.7,0 1.08,0.44 1.32,0.72 0.09,-0.45 0.46,-0.72 0.9,-0.72 0.35,0 0.57,0.22 0.73,0.54 0.17,0.36 0.3,0.97 0.3,0.99 0,0.1 -0.09,0.1 -0.12,0.1 -0.1,0 -0.11,-0.05 -0.14,-0.18 -0.16,-0.65 -0.34,-1.24 -0.75,-1.24 -0.27,0 -0.3,0.26 -0.3,0.46 0,0.22 0.12,0.69 0.2,1.03 0.09,0.36 0.19,0.72 0.28,1.08 0.03,0.15 0.13,0.52 0.17,0.67 0.05,0.23 0.15,0.61 0.15,0.67 0,0.18 -0.14,0.27 -0.29,0.27 -0.05,0 -0.31,-0.01 -0.39,-0.35 -0.13,-0.5 -0.32,-1.24 -0.47,-1.86 -0.12,-0.5 -0.23,-0.91 -0.26,-1.01 -0.01,-0.05 -0.49,-0.96 -1.29,-0.96 -0.5,0 -0.74,0.33 -0.74,0.87 0,0.29 0.07,0.56 0.14,0.84 z"
   inkscape:connector-curvature="0"
   style="fill:#000000;stroke-width:0" />
</g>
</g></svg>